<svg xmlns="http://www.w3.org/2000/svg" viewBox="0 0 1238.25 226.35"><defs><style>.cls-1{isolation:isolate;}.cls-2{mix-blend-mode:multiply;}.cls-3{fill:#f0e509;}.cls-4{fill:#45b596;}.cls-5{fill:#e60356;}</style></defs><title>LogoV2</title><g class="cls-1"><g id="Color_Pallette_Two" data-name="Color Pallette Two"><g class="cls-2"><path class="cls-3" d="M1440.62,608.71a20,20,0,0,1-20-20c0-5.24,0-19.15-49.83-29.55A20,20,0,1,1,1379,520c24.34,5.08,41.68,11.49,54.57,20.17,22.39,15.08,27.09,34.72,27.09,48.54A20,20,0,0,1,1440.62,608.71Z" transform="translate(-465.73 -427.74)"/></g><g class="cls-2"><path class="cls-4" d="M1380.26,654.06h-0.52c-34.4-.88-58.45-13.74-77.45-26.19a20,20,0,0,1,21.93-33.45c15,9.84,32.25,19,56.55,19.66A20,20,0,0,1,1380.26,654.06Z" transform="translate(-465.73 -427.74)"/></g><g class="cls-2"><path class="cls-5" d="M1383.11,654.09q-1.66,0-3.37,0a20,20,0,1,1,1-40c15.12,0.38,26.64-2.87,33.35-9.41a21.81,21.81,0,0,0,6.5-15.94,20,20,0,1,1,40,0A61.67,61.67,0,0,1,1442,633.3C1432.2,642.89,1414.07,654.09,1383.11,654.09Z" transform="translate(-465.73 -427.74)"/></g><g class="cls-2"><path class="cls-5" d="M1374.89,559.59a20.08,20.08,0,0,1-4.26-.46c-18.51-4-32.21-9.14-43.11-16.12-23.21-14.88-27.68-34.7-27.34-48.71,0.49-20.3,7.07-36.35,19.56-47.69,14.51-13.18,36.21-18.83,64.47-16.8a20,20,0,0,1-2.87,39.9c-16.7-1.19-28.7,1.05-34.71,6.51-1.52,1.38-6.14,5.57-6.46,19.05-0.1,4-.4,16.24,38.93,24.76A20,20,0,0,1,1374.89,559.59Z" transform="translate(-465.73 -427.74)"/></g><g class="cls-2"><path class="cls-4" d="M1430.59,485.62a19.91,19.91,0,0,1-9.17-2.24c-16.08-8.32-29.56-12.91-40.07-13.67a20,20,0,1,1,2.87-39.9c16.18,1.16,34.36,7.06,55.58,18A20,20,0,0,1,1430.59,485.62Z" transform="translate(-465.73 -427.74)"/></g><path class="cls-5" d="M485.71,641.75a20,20,0,0,1-17.82-29.06l88.38-174a20,20,0,1,1,35.66,18.11l-88.38,174A20,20,0,0,1,485.71,641.75Z" transform="translate(-465.73 -427.74)"/><g class="cls-2"><path class="cls-3" d="M662.5,641.75a20,20,0,0,1-17.85-10.95l-88.38-174a20,20,0,1,1,35.66-18.11l88.38,174A20,20,0,0,1,662.5,641.75Z" transform="translate(-465.73 -427.74)"/></g><g class="cls-2"><path class="cls-4" d="M642.9,603.19H505.34a20,20,0,0,1,0-40H642.9A20,20,0,1,1,642.9,603.19Z" transform="translate(-465.73 -427.74)"/></g><path class="cls-5" d="M886.09,641.75a20,20,0,0,1-17.82-29.06l88.38-174a20,20,0,1,1,35.66,18.11l-88.38,174A20,20,0,0,1,886.09,641.75Z" transform="translate(-465.73 -427.74)"/><g class="cls-2"><path class="cls-3" d="M1062.88,641.75A20,20,0,0,1,1045,630.8l-88.38-174a20,20,0,1,1,35.66-18.11l88.38,174A20,20,0,0,1,1062.88,641.75Z" transform="translate(-465.73 -427.74)"/></g><g class="cls-2"><path class="cls-4" d="M1043.27,603.19H905.72a20,20,0,0,1,0-40h137.55A20,20,0,0,1,1043.27,603.19Z" transform="translate(-465.73 -427.74)"/></g><path class="cls-3" d="M1593.45,455.58a85.1,85.1,0,1,0,83.7,86.47A85.19,85.19,0,0,0,1593.45,455.58Zm5.73,139.68V580.32a7.13,7.13,0,1,0-14.27,0v14.93a55.15,55.15,0,0,1-47.5-48H1552a7.13,7.13,0,1,0,0-14.27h-14.5a55.16,55.16,0,0,1,47.36-46.92v14.24a7.13,7.13,0,1,0,14.27,0V486.08a55.17,55.17,0,0,1,47.4,46.92H1632a7.13,7.13,0,1,0,0,14.27h14.67A55.17,55.17,0,0,1,1599.18,595.26Z" transform="translate(-465.73 -427.74)"/><path class="cls-5" d="M1593.89,428.78A111.9,111.9,0,1,0,1704,542.49,112,112,0,0,0,1593.89,428.78Zm7.54,183.67V592.81a9.38,9.38,0,0,0-18.76,0v19.63a72.53,72.53,0,0,1-62.47-63.09h19.25a9.38,9.38,0,1,0,0-18.76h-19.06a72.54,72.54,0,0,1,62.28-61.7v18.73a9.38,9.38,0,0,0,18.76,0V468.89a72.54,72.54,0,0,1,62.33,61.7h-19.11a9.38,9.38,0,0,0,0,18.76h19.3A72.54,72.54,0,0,1,1601.43,612.46Z" transform="translate(-465.73 -427.74)"/><g class="cls-2"><path class="cls-3" d="M724,641.74a20,20,0,0,1-20-20v-174a20,20,0,1,1,40,0v174A20,20,0,0,1,724,641.74Z" transform="translate(-465.73 -427.74)"/></g><g class="cls-2"><path class="cls-4" d="M827,641.74H724a20,20,0,0,1,0-40H827A20,20,0,0,1,827,641.74Z" transform="translate(-465.73 -427.74)"/></g><g class="cls-2"><path class="cls-3" d="M1254.7,607.36a20,20,0,0,1-20-20c0-5.24,0-19.15-49.83-29.55a20,20,0,1,1,8.17-39.16c24.34,5.08,41.68,11.49,54.57,20.17,22.39,15.08,27.09,34.72,27.09,48.54A20,20,0,0,1,1254.7,607.36Z" transform="translate(-465.73 -427.74)"/></g><g class="cls-2"><path class="cls-4" d="M1194.34,652.71h-0.52c-34.4-.88-58.45-13.74-77.45-26.19a20,20,0,0,1,21.93-33.45c15,9.84,32.25,19,56.55,19.66A20,20,0,0,1,1194.34,652.71Z" transform="translate(-465.73 -427.74)"/></g><g class="cls-2"><path class="cls-5" d="M1197.19,652.74q-1.66,0-3.37,0a20,20,0,1,1,1-40c15.12,0.38,26.64-2.87,33.35-9.41a21.81,21.81,0,0,0,6.5-15.94,20,20,0,1,1,40,0,61.67,61.67,0,0,1-18.58,44.58C1246.28,641.54,1228.15,652.74,1197.19,652.74Z" transform="translate(-465.73 -427.74)"/></g><g class="cls-2"><path class="cls-5" d="M1189,558.24a20.08,20.08,0,0,1-4.26-.46c-18.51-4-32.21-9.14-43.11-16.12-23.21-14.88-27.68-34.7-27.34-48.71,0.49-20.3,7.07-36.35,19.56-47.69,14.51-13.18,36.21-18.83,64.47-16.8a20,20,0,0,1-2.87,39.9c-16.7-1.19-28.7,1.05-34.71,6.51-1.52,1.38-6.14,5.57-6.46,19.05-0.1,4-.4,16.24,38.93,24.76A20,20,0,0,1,1189,558.24Z" transform="translate(-465.73 -427.74)"/></g><g class="cls-2"><path class="cls-4" d="M1244.67,484.27a19.91,19.91,0,0,1-9.17-2.24c-16.08-8.32-29.56-12.91-40.07-13.67a20,20,0,1,1,2.87-39.9c16.18,1.16,34.36,7.06,55.58,18A20,20,0,0,1,1244.67,484.27Z" transform="translate(-465.73 -427.74)"/></g><circle class="cls-4" cx="1126.34" cy="112.93" r="17.61"/></g></g></svg>